PathFileType	4	(X/Y/Z)	OpenSim_Sub08_CSBaseline_Magnet.trc
DataRate	CameraRate	NumFrames	NumMarkers	Units	OrigDataRate	OrigDataStartFrame	OrigNumFrames
100	100	20	8	m	100	2731	5461
Frame#	Time	torso_imu_offset_imu	pelvis_imu_offset_imu	tibia_r_imu_offset_imu	femur_r_imu_offset_imu	tibia_l_imu_offset_imu	femur_l_imu_offset_imu	toes_r_imu_offset_imu	toes_l_imu_offset_imu
				X1	Y1	Z1	X2	Y2	Z2	X3	Y3	Z3	X4	Y4	Z4	X5	Y5	Z5	X6	Y6	Z6	X7	Y7	Z7	X8		Y8	Z8	

2731	27.30000000	-0.94482400	-0.09326200	0.13647500	-0.62670900	0.18579100	-0.67944300	-0.54199200	-0.68310500	0.06127900	-0.70629900	-0.46655300	0.01733400	-0.78344700	0.15502900	0.13305700	-0.62793000	-0.13427700	0.24511700	-0.71826200	-0.32739300	-0.51147500	-0.55639600	-0.23095700	-0.57421900
2732	27.31000000	-0.94067400	-0.08886700	0.13403300	-0.62646500	0.17724600	-0.68383800	-0.53344700	-0.68725600	0.05468800	-0.70629900	-0.47070300	0.01293900	-0.78979500	0.14819300	0.14672900	-0.63232400	-0.13647500	0.25415000	-0.72265600	-0.32543900	-0.50317400	-0.54931600	-0.23974600	-0.57177700
2733	27.32000000	-0.94067400	-0.09106400	0.13647500	-0.62670900	0.18359400	-0.68872100	-0.52905300	-0.69555700	0.05517600	-0.69970700	-0.47485400	0.00854500	-0.78979500	0.14379900	0.14697300	-0.63012700	-0.13867200	0.25415000	-0.73095700	-0.32153300	-0.49707000	-0.54931600	-0.24194300	-0.56958000
2734	27.33000000	-0.94287100	-0.09106400	0.13427700	-0.62646500	0.17944300	-0.68383800	-0.51416000	-0.70190400	0.03979500	-0.69751000	-0.48095700	0.00195300	-0.78540000	0.15039100	0.15551800	-0.62548800	-0.14086900	0.26098600	-0.74145500	-0.32373000	-0.48877000	-0.55127000	-0.24853500	-0.56958000
2735	27.34000000	-0.94726600	-0.08691400	0.12963900	-0.63305700	0.18139600	-0.67919900	-0.50561500	-0.70800800	0.03979500	-0.69531200	-0.48315400	0.00659200	-0.78125000	0.16137700	0.15942400	-0.62548800	-0.14306600	0.25659200	-0.74560500	-0.32592800	-0.46997100	-0.55542000	-0.25537100	-0.56274400
2736	27.35000000	-0.94726600	-0.08471700	0.12744100	-0.62866200	0.17944300	-0.68139600	-0.50122100	-0.71435500	0.03784200	-0.69726600	-0.48510700	0.00659200	-0.78369100	0.17016600	0.16357400	-0.62768600	-0.14526400	0.26098600	-0.75805700	-0.32617200	-0.45336900	-0.55761700	-0.25976600	-0.55151400
2737	27.36000000	-0.94726600	-0.08691400	0.12744100	-0.63085900	0.18139600	-0.67456100	-0.48608400	-0.72680700	0.02710000	-0.69311500	-0.49145500	0.00903300	-0.77294900	0.18115200	0.16723600	-0.62329100	-0.14526400	0.27002000	-0.75781200	-0.33252000	-0.44067400	-0.57568400	-0.25341800	-0.54248000
2738	27.37000000	-0.94726600	-0.08471700	0.12304700	-0.62866200	0.17944300	-0.67675800	-0.47143600	-0.72876000	0.01391600	-0.69091800	-0.49121100	-0.00219700	-0.77343800	0.20092800	0.18212900	-0.61889600	-0.14502000	0.27221700	-0.76831100	-0.33276400	-0.42822300	-0.58276400	-0.24462900	-0.54272500
2739	27.38000000	-0.94506800	-0.08252000	0.11181600	-0.63305700	0.18139600	-0.67456100	-0.46044900	-0.73706100	0.00512700	-0.68872100	-0.49340800	-0.00683600	-0.76220700	0.19873000	0.18432600	-0.61645500	-0.14721700	0.28125000	-0.77880900	-0.33300800	-0.40747100	-0.59643600	-0.23584000	-0.53369100
2740	27.39000000	-0.94970700	-0.07617200	0.11157200	-0.63305700	0.18139600	-0.67236300	-0.44360400	-0.74536100	0.00317400	-0.68017600	-0.49536100	-0.01123000	-0.76489300	0.21630900	0.19458000	-0.61425800	-0.14721700	0.29248000	-0.78466800	-0.34545900	-0.38232400	-0.61206100	-0.23608400	-0.51123000
2741	27.40000000	-0.95166000	-0.07617200	0.10498000	-0.63745100	0.17919900	-0.66992200	-0.43286100	-0.75366200	-0.00976600	-0.68847700	-0.49951200	-0.01806600	-0.75830100	0.21850600	0.19653300	-0.61450200	-0.14062500	0.29467800	-0.79516600	-0.34765600	-0.35937500	-0.62597700	-0.22753900	-0.49340800
2742	27.41000000	-0.95166000	-0.08056600	0.09423800	-0.63964800	0.18335000	-0.66064500	-0.41381800	-0.75781200	-0.03198200	-0.69067400	-0.49951200	-0.02270500	-0.75146500	0.21850600	0.20776400	-0.61474600	-0.12988300	0.30127000	-0.80102500	-0.35815400	-0.33227500	-0.63452100	-0.23657200	-0.47753900
2743	27.42000000	-0.94946300	-0.07836900	0.08960000	-0.64184600	0.18335000	-0.66992200	-0.39477500	-0.76001000	-0.03857400	-0.68652300	-0.49536100	-0.02514600	-0.75610400	0.22509800	0.21411100	-0.60864300	-0.11889600	0.30566400	-0.81152300	-0.36450200	-0.29882800	-0.65234400	-0.24121100	-0.45752000
2744	27.43000000	-0.95605500	-0.07641600	0.08081100	-0.64624000	0.18750000	-0.66088900	-0.37988300	-0.77026400	-0.05835000	-0.68652300	-0.49536100	-0.03418000	-0.74926800	0.22290000	0.22973600	-0.61084000	-0.11474600	0.30566400	-0.81762700	-0.37085000	-0.26147500	-0.66333000	-0.24585000	-0.43725600
2745	27.44000000	-0.95581100	-0.08056600	0.06982400	-0.64819300	0.17919900	-0.66064500	-0.36303700	-0.77026400	-0.07617200	-0.69091800	-0.49121100	-0.03881800	-0.74487300	0.22265600	0.23657200	-0.61328100	-0.11035200	0.30566400	-0.82983400	-0.38159200	-0.21752900	-0.66528300	-0.25488300	-0.41918900
2746	27.45000000	-0.95166000	-0.07836900	0.06762700	-0.64575200	0.17480500	-0.66040000	-0.34399400	-0.77856400	-0.09594700	-0.69506800	-0.48925800	-0.04809600	-0.74267600	0.22705100	0.24072300	-0.61743200	-0.11694300	0.30786100	-0.83178700	-0.39209000	-0.16748000	-0.67627000	-0.25488300	-0.41015600
2747	27.46000000	-0.95385700	-0.07836900	0.05883800	-0.65429700	0.17065400	-0.66015600	-0.32275400	-0.78686500	-0.11572300	-0.70166000	-0.47460900	-0.06469700	-0.74267600	0.22924800	0.25170900	-0.61084000	-0.11669900	0.30786100	-0.83374000	-0.39843800	-0.10888700	-0.68505900	-0.26391600	-0.39672900
2748	27.47000000	-0.95361300	-0.08252000	0.04565400	-0.65185500	0.16015600	-0.66210900	-0.30175800	-0.78466800	-0.13818400	-0.70385700	-0.46850600	-0.07421900	-0.73828100	0.23364300	0.25585900	-0.60644500	-0.11889600	0.31005900	-0.83764600	-0.41528300	-0.05249000	-0.68505900	-0.26171900	-0.38769500
2749	27.48000000	-0.95996100	-0.08276400	0.04126000	-0.65844700	0.16210900	-0.65307600	-0.28295900	-0.78881800	-0.14453100	-0.71679700	-0.46020500	-0.08837900	-0.73413100	0.24243200	0.27124000	-0.61059600	-0.12329100	0.31933600	-0.82690400	-0.42968800	0.00610400	-0.69165000	-0.26611300	-0.38769500
2750	27.49000000	-0.95336900	-0.08691400	0.04150400	-0.66259800	0.15991200	-0.64819300	-0.25561500	-0.79492200	-0.15551800	-0.72363300	-0.43945300	-0.09594700	-0.72778300	0.25122100	0.27294900	-0.60620100	-0.12109400	0.32373000	-0.80981400	-0.44580100	0.06054700	-0.68701200	-0.26831100	-0.38085900
